<svg xmlns="http://www.w3.org/2000/svg" width="22" height="22" fill="#4A88C7" accent="true" tint="true" version="1.1" viewBox="0 0 28 28"><defs><mask id="mask"><rect width="28" height="28" x="0" y="0" fill="#fff"/><rect width="16" height="16" x="6" y="6" fill="#000"/></mask></defs><circle cx="14" cy="14" r="14" accent="true" mask="url(#mask)" opacity=".4"/><path d="M19,3H5A2,2 0 0,0 3,5V19A2,2 0 0,0 5,21H19A2,2 0 0,0 21,19V5A2,2 0 0,0 19,3M19,19H5V5H19V19M17,17H7V7H17V17Z" transform="translate(2 2)"/></svg>